<?xml version="1.0" encoding="UTF-8"?>
<!DOCTYPE svg PUBLIC "-//W3C//DTD SVG 1.1//EN" "http://www.w3.org/Graphics/SVG/1.1/DTD/svg11.dtd">
<!-- Creator: CorelDRAW -->
<svg xmlns="http://www.w3.org/2000/svg" xml:space="preserve" width="32.6912mm" height="11.1518mm" version="1.1" style="shape-rendering:geometricPrecision; text-rendering:geometricPrecision; image-rendering:optimizeQuality; fill-rule:evenodd; clip-rule:evenodd"
viewBox="0 0 96.19 32.81"
 xmlns:xlink="http://www.w3.org/1999/xlink"
 xmlns:xodm="http://www.corel.com/coreldraw/odm/2003">
 <defs>
  <style type="text/css">
   <![CDATA[
    .fil1 {fill:#0EA5E9}
    .fil2 {fill:#0EA5E9;fill-rule:nonzero}
    .fil0 {fill:white;fill-rule:nonzero}
   ]]>
  </style>
 </defs>
 <g id="Camada_x0020_1">
  <metadata id="CorelCorpID_0Corel-Layer"/>
  <path class="fil0" d="M28.29 8.87l0 -2.56 -6.38 0 0 -3.3 7.3 0 0 -2.54 -10.34 0 0 14.51 3.04 0 0 -6.12 6.38 0zm10.21 1.29c0,1.9 -0.96,2.82 -2.91,2.82 -1.64,0 -2.6,-1.14 -2.6,-2.93l0 -9.57 -3.08 0 0 9.86c0,3.5 2.21,5.16 5.73,5.16 3.8,0 5.97,-1.81 5.97,-5.33l0 -9.68 -3.1 0 0 9.68zm14.45 4.83l0 -2.65 -7.19 0 0 -11.87 -3.04 0 0 14.51 10.23 0zm9.01 -5.49l-3.69 0 1.86 -5.77 0.02 0 1.81 5.77zm5.09 5.49l-5.12 -14.51 -3.52 0 -5.18 14.51 3.21 0 1.03 -2.99 5.36 0 0.92 2.99 3.3 0zm12.5 0l0 -14.51 -2.84 0 0 9.33 -5.77 -9.33 -3.21 0 0 14.51 2.82 0 0 -9.75 6.21 9.75 2.8 0zm7.89 -2.1c-2.51,0 -3.98,-1.53 -3.98,-4.96 0,-3.43 1.42,-5.25 3.98,-5.25 2.54,0 3.93,1.81 3.93,5.25 0,3.43 -1.75,4.96 -3.93,4.96zm0 2.6c4.46,0 6.93,-2.58 6.93,-7.56 0,-4.98 -2.47,-7.93 -6.93,-7.93 -4.46,0 -6.97,2.95 -6.97,7.87 0,4.9 2.51,7.63 6.97,7.63z"/>
  <path class="fil1" d="M-0 12.48l13.67 -6.92 0 -5.56 -13.67 7.01 0 5.48zm8.52 10l-3.34 1.71 -0 -5.39 3.13 -1.58 5.36 -2.72 0 -5.56 -13.67 7.01 0 5.48 5.18 2.77 -5.18 2.65 0 5.48 13.67 -6.92 0 -5.56 -5.15 -2.52 0 5.16z"/>
  <path class="fil0" d="M21.82 29.84l0 -9.53 2.25 0c2.91,0 4.04,1.31 4.04,4.59 0,3.28 -1.14,4.94 -3.78,4.94l-2.51 0zm3.13 2.47c3.76,0 6.27,-2.99 6.27,-7.41 0,-4.42 -2.8,-7.1 -6.73,-7.1l-5.62 0 0 14.51 6.08 0zm13.9 -5.49l-3.69 0 1.86 -5.77 0.02 0 1.81 5.77zm5.09 5.49l-5.11 -14.51 -3.52 0 -5.18 14.51 3.21 0 1.03 -2.99 5.36 0 0.92 2.99 3.3 0z"/>
  <path class="fil2" d="M60.99 22.08c-0.11,-2.78 -2.16,-4.77 -5.84,-4.77 -3.54,0 -5.31,1.86 -5.31,4.46 0,1.84 0.87,2.89 2.43,3.58 1.03,0.46 2.19,0.72 3.98,1.11 1.81,0.39 2.25,0.98 2.25,1.84 0,1.29 -1.03,2.05 -2.82,2.05 -1.95,0 -3.19,-0.92 -3.24,-2.4l-2.93 0c0.07,3.26 2.56,4.85 6.14,4.85 3.39,0 5.79,-1.42 5.79,-4.61 0,-2.05 -1.01,-2.95 -2.27,-3.52 -1.07,-0.48 -2.67,-0.87 -4.31,-1.27 -1.62,-0.39 -2.25,-0.92 -2.25,-1.84 0,-1.09 0.9,-1.71 2.6,-1.71 1.84,0 2.73,0.72 2.89,2.21l2.89 0zm4.24 10.23l0 -14.51 -3.04 0 0 14.51 3.04 0zm11.28 0l0 -2.64 -7.19 0 0 -11.87 -3.04 0 0 14.51 10.23 0zm4.52 0l4.92 -14.51 -3.15 0 -3.15 10.19 -3.17 -10.19 -3.24 0 4.92 14.51 2.86 0zm10.06 -5.49l-3.69 0 1.86 -5.77 0.02 0 1.81 5.77zm5.09 5.49l-5.11 -14.51 -3.52 0 -5.18 14.51 3.21 0 1.03 -2.99 5.36 0 0.92 2.99 3.3 0z"/>
 </g>
</svg>
